<?xml version="1.0" encoding="UTF-8"?>
<svg version="1.1" xmlns="http://www.w3.org/2000/svg" width="1024" height="1024">
<path d="M0 0 C47.89922114 -0.72330036 98.00641639 0.50958518 144.79541016 11.54638672 C147.58575257 12.19294656 147.58575257 12.19294656 151.36962891 12.06201172 C151.36962891 12.72201172 151.36962891 13.38201172 151.36962891 14.06201172 C152.49498047 14.16384766 153.62033203 14.26568359 154.77978516 14.37060547 C159.69737833 14.99165007 164.15573617 16.45452332 168.80712891 18.12451172 C169.6745874 18.43324219 170.5420459 18.74197266 171.43579102 19.06005859 C189.22253947 25.53799855 204.42144489 34.47609832 219.36962891 46.06201172 C220.31064453 46.76970703 221.25166016 47.47740234 222.22119141 48.20654297 C222.93017578 48.81884766 223.63916016 49.43115234 224.36962891 50.06201172 C224.36962891 50.72201172 224.36962891 51.38201172 224.36962891 52.06201172 C224.96646484 52.33529297 225.56330078 52.60857422 226.17822266 52.89013672 C249.01328156 65.10139816 262.51336627 102.37484152 269.57470703 125.375 C271.69834486 132.55336545 273.56793537 139.79711843 275.36962891 147.06201172 C271.09142338 149.89170349 266.69447881 151.53376408 261.88916016 153.21435547 C260.64066284 153.65825119 260.64066284 153.65825119 259.36694336 154.1111145 C256.64046584 155.07906318 253.91134056 156.03930222 251.18212891 156.99951172 C249.27204807 157.67603747 247.36213775 158.35304487 245.45239258 159.03051758 C239.76054617 161.04786606 234.0653206 163.0555512 228.36962891 165.06201172 C226.81099863 165.61171285 225.25240248 166.16151076 223.69384766 166.71142578 C218.17707838 168.65787988 212.66018303 170.603972 207.14233398 172.54736328 C196.59308979 176.26502788 186.05780724 180.02124675 175.52890015 183.79611206 C173.76604489 184.42812943 172.00304596 185.05974622 170.23989868 185.69094849 C167.79306964 186.56718629 165.34687017 187.44515715 162.90087891 188.32373047 C162.16616867 188.58666901 161.43145844 188.84960754 160.67448425 189.12051392 C156.96187401 190.44708227 156.96187401 190.44708227 153.36962891 192.06201172 C151.0366423 192.10223563 148.70256225 192.10521419 146.36962891 192.06201172 C146.15048828 191.13904297 145.93134766 190.21607422 145.70556641 189.26513672 C137.45891601 153.29159538 137.45891601 153.29159538 113.28369141 126.65576172 C100.70242391 119.77485403 85.73526803 115.48738615 71.36962891 116.06201172 C71.03962891 115.73201172 70.70962891 115.40201172 70.36962891 115.06201172 C68.01975629 114.82673399 65.66406852 114.64814755 63.30712891 114.49951172 C61.37160156 114.37382812 61.37160156 114.37382812 59.39697266 114.24560547 C58.39794922 114.18501953 57.39892578 114.12443359 56.36962891 114.06201172 C56.03962891 114.72201172 55.70962891 115.38201172 55.36962891 116.06201172 C55.03962891 115.40201172 54.70962891 114.74201172 54.36962891 114.06201172 C20.21462891 113.56701172 20.21462891 113.56701172 -14.63037109 113.06201172 C-14.96037109 113.72201172 -15.29037109 114.38201172 -15.63037109 115.06201172 C-20.58037109 114.73201172 -25.53037109 114.40201172 -30.63037109 114.06201172 C-30.96037109 114.72201172 -31.29037109 115.38201172 -31.63037109 116.06201172 C-32.78537109 116.00013672 -33.94037109 115.93826172 -35.13037109 115.87451172 C-52.73087026 115.9296857 -73.03909348 121.91499924 -86.38037109 133.43701172 C-87.12287109 134.30326172 -87.86537109 135.16951172 -88.63037109 136.06201172 C-89.23107422 136.66142578 -89.83177734 137.26083984 -90.45068359 137.87841797 C-106.10117402 154.03472272 -110.23585528 178.64064743 -113.63037109 200.06201172 C-113.84089111 201.37371338 -113.84089111 201.37371338 -114.05566406 202.71191406 C-118.45594972 231.0986803 -119.2211895 260.38559791 -118.63037109 289.06201172 C-118.61103516 290.16561035 -118.59169922 291.26920898 -118.57177734 292.40625 C-118.51945197 356.53061734 -118.51945197 356.53061734 -92.21240234 412.58154297 C-78.54145605 425.37484827 -60.96745994 429.66695288 -42.94287109 432.31201172 C-41.29859131 432.55673218 -41.29859131 432.55673218 -39.62109375 432.80639648 C-20.79553828 435.36337341 -1.71833678 435.26866014 17.24462891 435.24951172 C18.35670715 435.24890747 19.4687854 435.24830322 20.61456299 435.24768066 C65.5569704 435.909504 65.5569704 435.909504 108.36962891 424.06201172 C109.17271484 423.69462891 109.97580078 423.32724609 110.80322266 422.94873047 C126.24717423 415.15983982 133.7078254 401.80528889 139.05712891 386.06201172 C141.85861416 377.50086806 143.96438392 368.81473115 145.77270508 359.99365234 C146.04691284 358.6759082 146.04691284 358.6759082 146.32666016 357.33154297 C146.48110596 356.55399658 146.63555176 355.7764502 146.79467773 354.9753418 C147.36962891 353.06201172 147.36962891 353.06201172 149.36962891 351.06201172 C153.23984045 351.47979954 156.76376531 352.83853181 160.40087891 354.17919922 C161.58883057 354.61554688 162.77678223 355.05189453 164.00073242 355.50146484 C165.29043476 355.97979129 166.58006498 356.45831224 167.86962891 356.93701172 C169.21584522 357.43390952 170.56211898 357.93065174 171.90844727 358.42724609 C184.56038215 363.1023078 197.17099672 367.88598514 209.77392578 372.69140625 C215.7413241 374.96605143 221.71154255 377.23325034 227.68212891 379.49951172 C229.43456909 380.16539307 229.43456909 380.16539307 231.22241211 380.84472656 C237.89842373 383.37815012 244.58133282 385.89174843 251.27197266 388.38623047 C252.01260452 388.66266891 252.75323639 388.93910736 253.51631165 389.22392273 C257.13586838 390.57489925 260.75635004 391.92327407 264.37866211 393.2668457 C265.68298769 393.75313456 266.98727058 394.23953798 268.29150391 394.72607422 C269.44231445 395.15355957 270.593125 395.58104492 271.77880859 396.02148438 C274.36962891 397.06201172 274.36962891 397.06201172 275.36962891 398.06201172 C275.31577208 405.56182021 273.36109875 412.71874582 271.30712891 419.87451172 C270.99694824 420.96183594 270.68676758 422.04916016 270.3671875 423.16943359 C258.15007381 465.01137066 234.9639092 500.76345339 196.01220703 522.27514648 C179.71012971 530.98494999 162.46372704 537.28262496 144.36962891 541.06201172 C143.44762695 541.25891602 142.525625 541.45582031 141.57568359 541.65869141 C51.8974212 560.59108727 -65.92915047 562.67707783 -170.90063477 516.55615234 C-177.17772524 512.44899335 -182.99590856 508.02067664 -188.63037109 503.06201172 C-190.09023438 501.81871094 -190.09023438 501.81871094 -191.57958984 500.55029297 C-206.07917411 487.97870867 -219.77810273 470.46317393 -225.63037109 452.06201172 C-226.29037109 451.73201172 -226.95037109 451.40201172 -227.63037109 451.06201172 C-228.38525391 449.26586914 -228.38525391 449.26586914 -229.08349609 446.97998047 C-230.0020476 444.05799675 -230.94789542 441.18334525 -231.98974609 438.30029297 C-240.09595102 415.69343944 -244.58049856 391.82650318 -247.63037109 368.06201172 C-247.76926758 367.00498047 -247.90816406 365.94794922 -248.05126953 364.85888672 C-258.60999181 282.5753851 -259.71997955 185.61467456 -206.1784668 68.10766602 C-205.68822021 67.4738501 -205.19797363 66.84003418 -204.69287109 66.18701172 C-204.22002686 65.57317627 -203.74718262 64.95934082 -203.26000977 64.3269043 C-202.09973909 62.86450394 -200.87071942 61.45713855 -199.63037109 60.06201172 C-198.97037109 60.06201172 -198.31037109 60.06201172 -197.63037109 60.06201172 C-197.36224609 59.48451172 -197.09412109 58.90701172 -196.81787109 58.31201172 C-195.06193048 54.98496635 -193.6020427 52.63812107 -190.31787109 50.69091797 C-187.57303583 49.02726055 -185.35482605 47.1748998 -182.94287109 45.06201172 C-158.44410162 24.86530498 -128.16881674 15.59841179 -97.63037109 9.06201172 C-96.72770508 8.86865234 -95.82503906 8.67529297 -94.89501953 8.47607422 C-64.02156459 2.11469045 -31.44375285 0.53710244 0 0 Z " fill="#26BAE7" transform="translate(496.63037109375,227.93798828125)"/>
<path d="M0 0 C5.05537113 0.38118802 8.5095724 1.51297285 12.81640625 4.140625 C13.89817139 4.79200439 14.97993652 5.44338379 16.09448242 6.11450195 C17.25055572 6.82622511 18.40655982 7.53806067 19.5625 8.25 C20.77700579 8.98584992 21.99226804 9.72045266 23.20825195 10.45385742 C25.66241109 11.93544261 28.11324304 13.42229596 30.56152344 14.91357422 C35.2424517 17.76031182 39.96421442 20.53679857 44.6875 23.3125 C53.80182979 28.69122507 62.90122341 34.09502898 72 39.5 C81.20325938 44.96694104 90.40816963 50.43095365 99.625 55.875 C100.48005127 56.3800708 101.33510254 56.8851416 102.21606445 57.40551758 C106.85253418 60.14338146 111.49046494 62.87875913 116.12890625 65.61328125 C117.14194824 66.21092285 118.15499023 66.80856445 119.19873047 67.42431641 C121.14393425 68.5718627 123.08955092 69.71870948 125.03564453 70.86474609 C125.90431152 71.37730957 126.77297852 71.88987305 127.66796875 72.41796875 C128.43391357 72.86938232 129.1998584 73.3207959 129.98901367 73.78588867 C131.68781152 74.81151957 133.3488816 75.8992544 135 77 C135.1875 79.625 135.1875 79.625 135 82 C134.24082275 82.43231934 133.48164551 82.86463867 132.69946289 83.31005859 C114.26312286 93.80240036 114.26312286 93.80240036 95.94140625 104.49291992 C90.99658779 107.4170193 86.03506774 110.31083805 81.0625 113.1875 C80.28108643 113.63955811 79.49967285 114.09161621 78.69458008 114.55737305 C74.14420635 117.18759705 69.59047205 119.81193925 65.03515625 122.43359375 C53.16500148 129.2675645 41.31621955 136.13577682 29.5 143.0625 C28.89343567 143.41789856 28.28687134 143.77329712 27.66192627 144.13946533 C25.90962485 145.16649955 24.15790933 146.1945274 22.40625 147.22265625 C21.31876465 147.86009766 20.2312793 148.49753906 19.11083984 149.15429688 C15.39555077 151.35862786 11.7232228 153.62921232 8.06689453 155.92993164 C5.30233401 157.36119419 3.05140598 157.48180094 0 157 C-1.38154074 154.23691853 -1.1259538 152.01321154 -1.12698364 148.91978455 C-1.13121338 146.97415871 -1.13121338 146.97415871 -1.13552856 144.98922729 C-1.13358409 143.54351793 -1.13153591 142.0978087 -1.12939453 140.65209961 C-1.1307489 139.13620461 -1.13252903 137.62030994 -1.13470459 136.10441589 C-1.13927435 131.98062359 -1.13749133 127.85685622 -1.1343255 123.73306346 C-1.13180002 119.42535887 -1.13413993 115.11765646 -1.13571167 110.80995178 C-1.13753261 103.57601537 -1.13512881 96.34208916 -1.13037109 89.1081543 C-1.12492656 80.73298321 -1.12669282 72.35783646 -1.1321975 63.98266596 C-1.13672831 56.80304948 -1.1373794 49.62344036 -1.13475883 42.44382292 C-1.13319614 38.15080177 -1.1330021 33.85779208 -1.13629532 29.56477165 C-1.13917364 25.53061719 -1.13719907 21.49649426 -1.13140106 17.46234322 C-1.13007334 15.97759682 -1.13046778 14.49284779 -1.13266373 13.00810242 C-1.13537468 10.98981315 -1.1313809 8.97151811 -1.12698364 6.95323181 C-1.12660662 5.82110229 -1.12622959 4.68897276 -1.12584114 3.52253628 C-1 1 -1 1 0 0 Z " fill="#26B9E6" transform="translate(459,427)"/>
<path d="M0 0 C0.66 0.33 1.32 0.66 2 1 C1.67 1.33 1.34 1.66 1 2 C0.90339048 3.92361627 0.87812832 5.85083066 0.87974548 7.77687073 C0.87837082 9.03195435 0.87699615 10.28703796 0.87557983 11.58015442 C0.87911945 12.98385644 0.88275426 14.38755822 0.88647461 15.79125977 C0.88675647 17.25936888 0.88659876 18.72747813 0.8860321 20.19558716 C0.8857441 24.19334657 0.89164126 28.19107624 0.89860606 32.18882871 C0.90483915 36.36220733 0.90544336 40.53558656 0.90663147 44.70896912 C0.90974492 52.61732792 0.91795849 60.52567297 0.92798096 68.4340257 C0.93914168 77.43508494 0.94465244 86.43614482 0.94967639 95.43720925 C0.96014109 113.95814731 0.9777408 132.47907255 1 151 C1.33 151 1.66 151 2 151 C2 152.65 2 154.3 2 156 C3.32 156.33 4.64 156.66 6 157 C4.02 157 2.04 157 0 157 C-1.38154074 154.23691853 -1.1259538 152.01321154 -1.12698364 148.91978455 C-1.13121338 146.97415871 -1.13121338 146.97415871 -1.13552856 144.98922729 C-1.13358409 143.54351793 -1.13153591 142.0978087 -1.12939453 140.65209961 C-1.1307489 139.13620461 -1.13252903 137.62030994 -1.13470459 136.10441589 C-1.13927435 131.98062359 -1.13749133 127.85685622 -1.1343255 123.73306346 C-1.13180002 119.42535887 -1.13413993 115.11765646 -1.13571167 110.80995178 C-1.13753261 103.57601537 -1.13512881 96.34208916 -1.13037109 89.1081543 C-1.12492656 80.73298321 -1.12669282 72.35783646 -1.1321975 63.98266596 C-1.13672831 56.80304948 -1.1373794 49.62344036 -1.13475883 42.44382292 C-1.13319614 38.15080177 -1.1330021 33.85779208 -1.13629532 29.56477165 C-1.13917364 25.53061719 -1.13719907 21.49649426 -1.13140106 17.46234322 C-1.13007334 15.97759682 -1.13046778 14.49284779 -1.13266373 13.00810242 C-1.13537468 10.98981315 -1.1313809 8.97151811 -1.12698364 6.95323181 C-1.12660662 5.82110229 -1.12622959 4.68897276 -1.12584114 3.52253628 C-1 1 -1 1 0 0 Z " fill="#82D8F1" transform="translate(459,427)"/>
<path d="M0 0 C0.33 0 0.66 0 1 0 C0.67 6.27 0.34 12.54 0 19 C-0.66 19 -1.32 19 -2 19 C-1.98839844 20.13179688 -1.97679687 21.26359375 -1.96484375 22.4296875 C-1.95546546 23.91145669 -1.9463653 25.39322765 -1.9375 26.875 C-1.92912109 27.62136719 -1.92074219 28.36773437 -1.91210938 29.13671875 C-1.88671875 34.7734375 -1.88671875 34.7734375 -3 37 C-3.20757376 39.64944847 -3.37398372 42.28415723 -3.5 44.9375 C-3.86571207 52.59713622 -3.86571207 52.59713622 -5 56 C-5.1529647 58.51054905 -5.25695178 60.99888525 -5.31640625 63.51171875 C-5.33718735 64.23994339 -5.35796844 64.96816803 -5.37937927 65.71846008 C-5.44468746 68.04137875 -5.50367237 70.36440906 -5.5625 72.6875 C-5.60570305 74.26368335 -5.64931792 75.83985548 -5.69335938 77.41601562 C-5.8003496 81.27722975 -5.90166961 85.13855603 -6 89 C-6.99 89.495 -6.99 89.495 -8 90 C-8.5430667 59.88996834 -5.73325778 29.57735847 0 0 Z " fill="#85D4EB" transform="translate(253,387)"/>
<path d="M0 0 C0.33 0 0.66 0 1 0 C1.3707673 7.44624334 0.08738606 13.62114935 -2 20.75 C-2.31469238 21.84183594 -2.62938477 22.93367187 -2.95361328 24.05859375 C-15.64356422 67.09570948 -15.64356422 67.09570948 -26 74 C-25.0695258 69.80999427 -23.20245798 66.23075796 -21.25 62.4375 C-20.51829302 60.99020868 -19.78782518 59.54229023 -19.05859375 58.09375 C-18.70394043 57.38992188 -18.34928711 56.68609375 -17.98388672 55.9609375 C-11.61839454 43.27417989 -7.49990783 30.08572181 -3.75 16.4375 C-3.3624353 15.02730591 -3.3624353 15.02730591 -2.96704102 13.58862305 C-1.75068958 9.07705764 -0.64799033 4.63621651 0 0 Z " fill="#26B0DC" transform="translate(770,627)"/>
<path d="M0 0 C22.79031508 -0.59357706 45.30451707 1.12601532 68 3 C68 3.33 68 3.66 68 4 C63.52084672 4.02886338 59.04171709 4.04675187 54.5625 4.0625 C53.28310547 4.07087891 52.00371094 4.07925781 50.68554688 4.08789062 C48.86313477 4.09272461 48.86313477 4.09272461 47.00390625 4.09765625 C45.87799072 4.10289307 44.7520752 4.10812988 43.59204102 4.11352539 C41 4 41 4 40 3 C37.21355015 2.86451714 34.44838887 2.78940976 31.66015625 2.75390625 C29.94075003 2.72097219 28.22134912 2.68776047 26.50195312 2.65429688 C23.77843838 2.60681803 21.05494583 2.56239128 18.33129883 2.52319336 C15.71152116 2.48358242 13.09219009 2.43201416 10.47265625 2.37890625 C9.65491226 2.3704921 8.83716827 2.36207794 7.99464417 2.35340881 C2.22667352 2.22667352 2.22667352 2.22667352 0 0 Z " fill="#79D0EC" transform="translate(528,229)"/>
<path d="M0 0 C-3.48119187 2.32079458 -7.08784136 3.62434337 -10.9921875 5.0390625 C-11.77514191 5.32478119 -12.55809631 5.61049988 -13.36477661 5.90487671 C-15.01991508 6.50708051 -16.67585123 7.10709578 -18.33251953 7.70507812 C-20.8616744 8.62017852 -23.38591634 9.54800458 -25.91015625 10.4765625 C-27.5205481 11.06068281 -29.13121645 11.64404149 -30.7421875 12.2265625 C-31.49442596 12.50464752 -32.24666443 12.78273254 -33.021698 13.06924438 C-36.79034522 14.41517838 -39.98286003 15.35099303 -44 15 C-41.88944187 12.88944187 -40.7620774 12.41812869 -37.9921875 11.484375 C-37.17766113 11.20537354 -36.36313477 10.92637207 -35.52392578 10.63891602 C-34.64978027 10.34557373 -33.77563477 10.05223145 -32.875 9.75 C-25.06078484 7.09144526 -25.06078484 7.09144526 -17.328125 4.20703125 C-16.61543457 3.92956055 -15.90274414 3.65208984 -15.16845703 3.36621094 C-13.84330209 2.84501499 -12.52112279 2.3161635 -11.20263672 1.77832031 C-7.32313291 0.26066092 -4.15675793 -0.26059186 0 0 Z " fill="#28B2DF" transform="translate(770,376)"/>
<path d="M0 0 C1.25159912 0.04713135 2.50319824 0.0942627 3.79272461 0.14282227 C4.45719101 0.16643326 5.12165741 0.19004425 5.80625916 0.21437073 C7.93607115 0.29116537 10.06553382 0.37512065 12.19506836 0.45922852 C13.63580627 0.51243345 15.07656141 0.56517394 16.51733398 0.61743164 C20.05596149 0.74680138 23.59430977 0.88259592 27.13256836 1.02172852 C27.13256836 1.35172852 27.13256836 1.68172852 27.13256836 2.02172852 C6.78837892 3.04151457 -13.50434057 3.13712528 -33.86743164 3.02172852 C-33.86743164 2.69172852 -33.86743164 2.36172852 -33.86743164 2.02172852 C-32.96387939 1.99667236 -32.06032715 1.97161621 -31.12939453 1.94580078 C-27.78778884 1.85085535 -24.44636912 1.75161231 -21.10498047 1.64941406 C-19.65678924 1.60601222 -18.2085451 1.56434107 -16.76025391 1.52441406 C-14.68253605 1.46683789 -12.60508591 1.40310824 -10.52758789 1.33813477 C-9.27598877 1.30147705 -8.02438965 1.26481934 -6.73486328 1.22705078 C-3.41235899 0.98914307 -3.3343461 0.02526665 0 0 Z " fill="#42BEE5" transform="translate(531.867431640625,776.978271484375)"/>
<path d="M0 0 C0 0.66 0 1.32 0 2 C-4.33671576 3.59867874 -8.67827067 5.18311963 -13.02490234 6.75463867 C-14.5025528 7.29112598 -15.9788111 7.83146408 -17.45361328 8.37573242 C-19.57489654 9.15782171 -21.70081617 9.92588336 -23.828125 10.69140625 C-24.81428802 11.06006554 -24.81428802 11.06006554 -25.82037354 11.43617249 C-29.21228151 12.6407519 -31.58514997 13.41783972 -35 12 C-31.05830534 9.92357156 -27.27760328 8.35808462 -23 7.125 C-16.83604203 5.29496415 -10.82922723 3.17942541 -4.80078125 0.953125 C-2 0 -2 0 0 0 Z " fill="#26B1DD" transform="translate(708,397)"/>
<path d="M0 0 C2.625 0.375 2.625 0.375 5 1 C2 3 2 3 0 3 C-0.33 5.31 -0.66 7.62 -1 10 C-1.66 10 -2.32 10 -3 10 C-3 13.3 -3 16.6 -3 20 C-3.66 20 -4.32 20 -5 20 C-4.938125 21.0725 -4.87625 22.145 -4.8125 23.25 C-5.00543309 27.10866187 -5.39665076 28.28817788 -8 31 C-7.22915881 24.80728709 -5.93299714 18.77282695 -4.5625 12.6875 C-4.34529297 11.68654297 -4.12808594 10.68558594 -3.90429688 9.65429688 C-3.68966797 8.69974609 -3.47503906 7.74519531 -3.25390625 6.76171875 C-3.06127197 5.89506592 -2.8686377 5.02841309 -2.67016602 4.13549805 C-2 2 -2 2 0 0 Z " fill="#6FCDEA" transform="translate(646,579)"/>
<path d="M0 0 C2.93422494 2.46468683 3.7877272 4.7625729 4.859375 8.40234375 C5.17003906 9.45744141 5.48070312 10.51253906 5.80078125 11.59960938 C6.11402344 12.70111328 6.42726563 13.80261719 6.75 14.9375 C7.07871094 16.03513672 7.40742187 17.13277344 7.74609375 18.26367188 C8.05160156 19.32005859 8.35710938 20.37644531 8.671875 21.46484375 C8.9512793 22.430271 9.23068359 23.39569824 9.51855469 24.39038086 C10.00500088 27.0271067 9.88120219 28.49993934 9 31 C6.62662579 25.18523319 4.94644817 19.28397 3.44628906 13.19311523 C2.63285259 9.98268112 1.86067995 7.79101993 0 5 C-0.125 2.3125 -0.125 2.3125 0 0 Z " fill="#2AB2DC" transform="translate(760,340)"/>
<path d="M0 0 C0.33 0 0.66 0 1 0 C1.05437607 1.58294782 1.09296271 3.16644256 1.125 4.75 C1.14820313 5.63171875 1.17140625 6.5134375 1.1953125 7.421875 C0.99139502 10.1135858 0.36551721 11.69904974 -1 14 C-1.66 14 -2.32 14 -3 14 C-2.979375 15.134375 -2.95875 16.26875 -2.9375 17.4375 C-3 21 -3 21 -4 22 C-4.144375 23.155 -4.28875 24.31 -4.4375 25.5 C-4.623125 26.655 -4.80875 27.81 -5 29 C-5.66 29.33 -6.32 29.66 -7 30 C-6.43240789 22.99490754 -4.95346459 16.6589411 -2.9375 9.9375 C-2.65583984 8.97650391 -2.37417969 8.01550781 -2.08398438 7.02539062 C-1.39598716 4.68153571 -0.7012399 2.33992007 0 0 Z " fill="#77CEEA" transform="translate(262,352)"/>
<path d="M0 0 C0.33 0 0.66 0 1 0 C0.67 6.27 0.34 12.54 0 19 C-0.66 19 -1.32 19 -2 19 C-2.33 23.62 -2.66 28.24 -3 33 C-3.33 33 -3.66 33 -4 33 C-3.56208275 21.7802581 -2.16754569 11.01494915 0 0 Z " fill="#92D7EE" transform="translate(253,387)"/>
<path d="M0 0 C2.34058081 1.99198367 4.6724285 3.99289124 7 6 C8.22203125 7.04414062 8.22203125 7.04414062 9.46875 8.109375 C10.2834375 8.81578125 11.098125 9.5221875 11.9375 10.25 C13.09572266 11.24773438 13.09572266 11.24773438 14.27734375 12.265625 C16 14 16 14 16 16 C11.93651061 14.33318032 8.94211118 11.49114746 5.75 8.5625 C5.19570313 8.07201172 4.64140625 7.58152344 4.0703125 7.07617188 C2.65197277 5.78184954 1.31884311 4.39556825 0 3 C0 2.01 0 1.02 0 0 Z " fill="#29B1DE" transform="translate(297,718)"/>
<path d="M0 0 C-2.95216578 1.96811052 -4.41786119 2.41597612 -7.8125 3 C-10.80257221 3.54839752 -13.4794251 4.15980837 -16.375 5.125 C-19 6 -19 6 -23 6 C-23 5.34 -23 4.68 -23 4 C-20.48159185 3.322781 -17.96091276 2.65808826 -15.4375 2 C-14.73302734 1.80921875 -14.02855469 1.6184375 -13.30273438 1.421875 C-8.72939791 0.24165914 -4.72223635 -0.19856973 0 0 Z " fill="#27B2DE" transform="translate(397,239)"/>
<path d="M0 0 C0.66 0 1.32 0 2 0 C3.98 4.62 5.96 9.24 8 14 C7.01 14 6.02 14 5 14 C4.87625 13.360625 4.7525 12.72125 4.625 12.0625 C4.41875 11.381875 4.2125 10.70125 4 10 C3.34 9.67 2.68 9.34 2 9 C1.3671875 6.93359375 1.3671875 6.93359375 0.875 4.4375 C0.70742188 3.61121094 0.53984375 2.78492188 0.3671875 1.93359375 C0.24601562 1.29550781 0.12484375 0.65742187 0 0 Z " fill="#34B3DE" transform="translate(267,670)"/>
<path d="M0 0 C0.99 0.33 1.98 0.66 3 1 C1.23977508 2.53309913 -0.53353463 4.05118701 -2.3125 5.5625 C-3.79169922 6.83287109 -3.79169922 6.83287109 -5.30078125 8.12890625 C-6.19152344 8.74636719 -7.08226562 9.36382813 -8 10 C-8.99 9.67 -9.98 9.34 -11 9 C-9.23977508 7.46690087 -7.46646537 5.94881299 -5.6875 4.4375 C-4.70136719 3.59058594 -3.71523438 2.74367188 -2.69921875 1.87109375 C-1.80847656 1.25363281 -0.91773438 0.63617187 0 0 Z " fill="#25B2DB" transform="translate(714,732)"/>
<path d="M0 0 C6.93 3.96 6.93 3.96 14 8 C12.68 8.33 11.36 8.66 10 9 C10 8.34 10 7.68 10 7 C8.68 7 7.36 7 6 7 C6 6.34 6 5.68 6 5 C5.01 5 4.02 5 3 5 C3 4.34 3 3.68 3 3 C2.01 2.67 1.02 2.34 0 2 C0 1.34 0 0.68 0 0 Z " fill="#5BC7E7" transform="translate(509,454)"/>
<path d="M0 0 C0.99 0 1.98 0 3 0 C3 0.66 3 1.32 3 2 C1.59248779 2.86916887 0.1735479 3.71985149 -1.25 4.5625 C-2.03890625 5.03816406 -2.8278125 5.51382813 -3.640625 6.00390625 C-6.30844625 7.13022151 -7.34501768 7.0169313 -10 6 C-9.36191406 5.65066406 -8.72382813 5.30132813 -8.06640625 4.94140625 C-7.24011719 4.48636719 -6.41382813 4.03132812 -5.5625 3.5625 C-4.73878906 3.11003906 -3.91507812 2.65757812 -3.06640625 2.19140625 C-1.07691202 1.16337603 -1.07691202 1.16337603 0 0 Z " fill="#22B0DE" transform="translate(472,576)"/>
<path d="M0 0 C-1.4096347 0.70180531 -2.82807641 1.38593958 -4.25 2.0625 C-5.03890625 2.44535156 -5.8278125 2.82820313 -6.640625 3.22265625 C-9.25993522 4.08564091 -10.44855176 3.93045933 -13 3 C-11.5903653 2.29819469 -10.17192359 1.61406042 -8.75 0.9375 C-7.96109375 0.55464844 -7.1721875 0.17179687 -6.359375 -0.22265625 C-3.74006478 -1.08564091 -2.55144824 -0.93045933 0 0 Z " fill="#27B1DE" transform="translate(672,411)"/>
<path d="M0 0 C0.33 0 0.66 0 1 0 C1.08090971 1.62418745 1.13914995 3.24951745 1.1875 4.875 C1.22230469 5.77992188 1.25710938 6.68484375 1.29296875 7.6171875 C1.19628906 8.40351563 1.09960938 9.18984375 1 10 C0.01 10.66 -0.98 11.32 -2 12 C-1.85831863 10.56208484 -1.71148957 9.1246763 -1.5625 7.6875 C-1.48128906 6.88699219 -1.40007812 6.08648437 -1.31640625 5.26171875 C-1 3 -1 3 0 0 Z " fill="#57C4E5" transform="translate(262,352)"/>
<path d="M0 0 C3.63 1.98 7.26 3.96 11 6 C7 7 7 7 3.8125 5.25 C1 3 1 3 0 0 Z " fill="#5AC5E7" transform="translate(529,466)"/>
<path d="M0 0 C0.66 0.33 1.32 0.66 2 1 C1.34 3.31 0.68 5.62 0 8 C-1.65 7.67 -3.3 7.34 -5 7 C-3.35 4.69 -1.7 2.38 0 0 Z " fill="#3BBDE3" transform="translate(304,280)"/>
<path d="M0 0 C2.12038635 2.61514317 4.13091744 5.19637616 6 8 C5.625 10.1875 5.625 10.1875 5 12 C4.15556432 10.75747321 3.3248542 9.5056114 2.5 8.25 C1.80390625 7.20585938 1.80390625 7.20585938 1.09375 6.140625 C0 4 0 4 0 0 Z " fill="#2FB1DC" transform="translate(275,686)"/>
<path d="M0 0 C0 4.31618166 -2.13270348 5.92789659 -5 9 C-5.66 9 -6.32 9 -7 9 C-5.44499019 5.18315774 -2.96404505 2.80804268 0 0 Z " fill="#22B0DB" transform="translate(733,714)"/>
<path d="M0 0 C1.65 0.33 3.3 0.66 5 1 C2 3 2 3 0 3 C-0.66 4.65 -1.32 6.3 -2 8 C-2.33 7.01 -2.66 6.02 -3 5 C-1.5625 2.3125 -1.5625 2.3125 0 0 Z " fill="#9BDCEF" transform="translate(646,579)"/>
<path d="M0 0 C0.33 0 0.66 0 1 0 C1.21755666 5.4389165 1.10428384 9.87080814 -1 15 C-1.33 15 -1.66 15 -2 15 C-2 12.36 -2 9.72 -2 7 C-1.34 7 -0.68 7 0 7 C0 4.69 0 2.38 0 0 Z " fill="#6ECDEC" transform="translate(250,413)"/>
<path d="M0 0 C4.42679007 1.47559669 4.91432696 3.90057368 7 8 C7 8.66 7 9.32 7 10 C6.34 10 5.68 10 5 10 C3.7109375 8.3203125 3.7109375 8.3203125 2.375 6.125 C1.92898438 5.40570313 1.48296875 4.68640625 1.0234375 3.9453125 C0 2 0 2 0 0 Z " fill="#2DB5DC" transform="translate(745,310)"/>
<path d="M0 0 C0.33 0 0.66 0 1 0 C1.25 3.3125 1.25 3.3125 1 7 C-0.32 7.99 -1.64 8.98 -3 10 C-2.01 6.7 -1.02 3.4 0 0 Z " fill="#67C9E8" transform="translate(268,335)"/>
<path d="M0 0 C0.66 0 1.32 0 2 0 C4.09230769 4.43076923 4.09230769 4.43076923 3.625 7.3125 C3.41875 7.869375 3.2125 8.42625 3 9 C0 3.375 0 3.375 0 0 Z " fill="#29B3DB" transform="translate(755,328)"/>
<path d="M0 0 C2.31 0 4.62 0 7 0 C7 0.33 7 0.66 7 1 C4.69 1 2.38 1 0 1 C0 0.67 0 0.34 0 0 Z " fill="#67C0FF" transform="translate(467,343)"/>
<path d="M0 0 C1.98 0 3.96 0 6 0 C6 0.33 6 0.66 6 1 C4.02 1 2.04 1 0 1 C0 0.67 0 0.34 0 0 Z " fill="#3CC3FF" transform="translate(536,342)"/>
<path d="M0 0 C4 1 4 1 4 1 Z " fill="#68DDFF" transform="translate(499,342)"/>
<path d="M0 0 C4 1 4 1 4 1 Z " fill="#85C6FF" transform="translate(491,342)"/>
<path d="M0 0 C3 1 3 1 3 1 Z " fill="#5CE4FF" transform="translate(618,774)"/>
<path d="M0 0 C3 1 3 1 3 1 Z " fill="#58ABFF" transform="translate(392,771)"/>
<path d="M0 0 C3 1 3 1 3 1 Z " fill="#65DEF2" transform="translate(556,343)"/>
<path d="M0 0 C3 1 3 1 3 1 Z " fill="#7CBDFF" transform="translate(475,343)"/>
<path d="M0 0 C2 1 2 1 2 1 Z " fill="#58FFFF" transform="translate(498,781)"/>
<path d="M0 0 C2 1 2 1 2 1 Z " fill="#89CEEB" transform="translate(608,775)"/>
<path d="M0 0 C2 1 2 1 2 1 Z " fill="#99CCFF" transform="translate(416,775)"/>
<path d="M0 0 C2 1 2 1 2 1 Z " fill="#A5D2FF" transform="translate(409,774)"/>
<path d="M0 0 C2 1 2 1 2 1 Z " fill="#3EFFFF" transform="translate(407,773)"/>
<path d="M0 0 C2 1 2 1 2 1 Z " fill="#04FFFF" transform="translate(372,766)"/>
<path d="M0 0 C2 1 2 1 2 1 Z " fill="#25E0E0" transform="translate(370,765)"/>
<path d="M0 0 C2 1 2 1 2 1 Z " fill="#3DFFFF" transform="translate(352,759)"/>
<path d="M0 0 C2 1 2 1 2 1 Z " fill="#00FFFF" transform="translate(692,751)"/>
<path d="M0 0 C2 1 2 1 2 1 Z " fill="#00FFFF" transform="translate(704,743)"/>
<path d="" fill="#99CCFF" transform="translate(0,0)"/>
<path d="M0 0 C2 1 2 1 2 1 Z " fill="#81E7FF" transform="translate(274,691)"/>
<path d="M0 0 C2 1 2 1 2 1 Z " fill="#4ECEFF" transform="translate(484,573)"/>
<path d="M0 0 C2 1 2 1 2 1 Z " fill="#20FFFF" transform="translate(709,399)"/>
<path d="M0 0 C2 1 2 1 2 1 Z " fill="#34D6FF" transform="translate(737,389)"/>
<path d="M0 0 C2 1 2 1 2 1 Z " fill="#87EFFF" transform="translate(532,342)"/>
<path d="M0 0 C2 1 2 1 2 1 Z " fill="#A9D3FF" transform="translate(520,342)"/>
<path d="M0 0 C2 1 2 1 2 1 Z " fill="#5CFFFF" transform="translate(507,342)"/>
<path d="M0 0 C2 1 2 1 2 1 Z " fill="#4CA5FF" transform="translate(504,342)"/>
<path d="M0 0 C2 1 2 1 2 1 Z " fill="#71C2FF" transform="translate(496,342)"/>
<path d="M0 0 C2 1 2 1 2 1 Z " fill="#A9DCFF" transform="translate(488,342)"/>
<path d="M0 0 C2 1 2 1 2 1 Z " fill="#54D8FF" transform="translate(354,248)"/>
<path d="M0 0 C2 1 2 1 2 1 Z " fill="#80BFFF" transform="translate(417,232)"/>
<path d="" fill="#6CFFFF" transform="translate(0,0)"/>
<path d="" fill="#4FA7FF" transform="translate(0,0)"/>
<path d="" fill="#4BA5FF" transform="translate(0,0)"/>
<path d="" fill="#89C4FF" transform="translate(0,0)"/>
<path d="" fill="#6DB6FF" transform="translate(0,0)"/>
<path d="" fill="#A8D4FF" transform="translate(0,0)"/>
<path d="" fill="#178BFF" transform="translate(0,0)"/>
<path d="" fill="#51FFFF" transform="translate(0,0)"/>
<path d="" fill="#55AAFF" transform="translate(0,0)"/>
<path d="" fill="#00FFFF" transform="translate(0,0)"/>
<path d="" fill="#44FFFF" transform="translate(0,0)"/>
<path d="" fill="#33FFFF" transform="translate(0,0)"/>
<path d="" fill="#01FFFF" transform="translate(0,0)"/>
<path d="" fill="#2290FF" transform="translate(0,0)"/>
<path d="" fill="#26FFFF" transform="translate(0,0)"/>
<path d="" fill="#5AFFFF" transform="translate(0,0)"/>
<path d="" fill="#A0CFFF" transform="translate(0,0)"/>
<path d="" fill="#9ADDDD" transform="translate(0,0)"/>
<path d="" fill="#62FFFF" transform="translate(0,0)"/>
<path d="" fill="#DEEEFF" transform="translate(0,0)"/>
<path d="" fill="#3FFFFF" transform="translate(0,0)"/>
<path d="" fill="#62FFFF" transform="translate(0,0)"/>
<path d="" fill="#6AFFFF" transform="translate(0,0)"/>
<path d="" fill="#6FFFFF" transform="translate(0,0)"/>
<path d="" fill="#37FFFF" transform="translate(0,0)"/>
<path d="" fill="#4FFFFF" transform="translate(0,0)"/>
<path d="" fill="#30FFFF" transform="translate(0,0)"/>
<path d="" fill="#ADD6FF" transform="translate(0,0)"/>
<path d="" fill="#41FFFF" transform="translate(0,0)"/>
<path d="" fill="#34FFFF" transform="translate(0,0)"/>
<path d="" fill="#03FFFF" transform="translate(0,0)"/>
<path d="" fill="#CCE5FF" transform="translate(0,0)"/>
<path d="" fill="#54FFFF" transform="translate(0,0)"/>
<path d="" fill="#4AFFFF" transform="translate(0,0)"/>
<path d="" fill="#6CFFFF" transform="translate(0,0)"/>
<path d="" fill="#43A1FF" transform="translate(0,0)"/>
<path d="" fill="#42FFFF" transform="translate(0,0)"/>
<path d="" fill="#5FFFFF" transform="translate(0,0)"/>
<path d="" fill="#A2D1FF" transform="translate(0,0)"/>
<path d="" fill="#81C0FF" transform="translate(0,0)"/>
<path d="" fill="#09FFFF" transform="translate(0,0)"/>
<path d="" fill="#70FFFF" transform="translate(0,0)"/>
<path d="" fill="#81E0E0" transform="translate(0,0)"/>
</svg>
